<?xml version="1.0" encoding="UTF-8" standalone="no"?><svg xmlns="http://www.w3.org/2000/svg" xmlns:xlink="http://www.w3.org/1999/xlink" contentStyleType="text/css" height="654px" preserveAspectRatio="none" style="width:321px;height:654px;background:#FFFFFF;" version="1.1" viewBox="0 0 321 654" width="321px" zoomAndPan="magnify"><defs/><g><ellipse cx="153.5" cy="20" fill="#222222" rx="10" ry="10" style="stroke:#222222;stroke-width:1.0;"/><rect fill="#F1F1F1" height="33.7988" rx="12.5" ry="12.5" style="stroke:#181818;stroke-width:0.5;" width="113" x="97" y="105.8179"/><text fill="#000000" font-family="sans-serif" font-size="12" lengthAdjust="spacing" textLength="93" x="107" y="127.0737">show main menu</text><rect fill="#F1F1F1" height="33.7988" rx="12.5" ry="12.5" style="stroke:#181818;stroke-width:0.5;" width="67" x="120" y="159.6167"/><text fill="#000000" font-family="sans-serif" font-size="12" lengthAdjust="spacing" textLength="47" x="130" y="180.8726">get input</text><polygon fill="#F1F1F1" points="116,213.4155,191,213.4155,203,225.4155,191,237.4155,116,237.4155,104,225.4155,116,213.4155" style="stroke:#181818;stroke-width:0.5;"/><text fill="#000000" font-family="sans-serif" font-size="11" lengthAdjust="spacing" textLength="18" x="157.5" y="247.7334">yes</text><text fill="#000000" font-family="sans-serif" font-size="11" lengthAdjust="spacing" textLength="72" x="116" y="229.4089">input = sel_exit</text><rect fill="#F1F1F1" height="33.7988" rx="12.5" ry="12.5" style="stroke:#181818;stroke-width:0.5;" width="71" x="118" y="356.0645"/><text fill="#000000" font-family="sans-serif" font-size="12" lengthAdjust="spacing" textLength="51" x="128" y="377.3203">print logo</text><polygon fill="#F1F1F1" points="48,307.74,259,307.74,271,319.74,259,331.74,48,331.74,36,319.74,48,307.74" style="stroke:#181818;stroke-width:0.5;"/><text fill="#000000" font-family="sans-serif" font-size="11" lengthAdjust="spacing" textLength="18" x="157.5" y="342.0579">yes</text><text fill="#000000" font-family="sans-serif" font-size="11" lengthAdjust="spacing" textLength="208" x="48" y="323.7334">input = sel_group_logo or input = sel_group</text><polygon fill="#F1F1F1" points="153.5,409.8633,165.5,421.8633,153.5,433.8633,141.5,421.8633,153.5,409.8633" style="stroke:#181818;stroke-width:0.5;"/><rect fill="#F1F1F1" height="33.7988" rx="12.5" ry="12.5" style="stroke:#181818;stroke-width:0.5;" width="108" x="99.5" y="502.1877"/><text fill="#000000" font-family="sans-serif" font-size="12" lengthAdjust="spacing" textLength="88" x="109.5" y="523.4436">print developers</text><polygon fill="#F1F1F1" points="48,453.8633,259,453.8633,271,465.8633,259,477.8633,48,477.8633,36,465.8633,48,453.8633" style="stroke:#181818;stroke-width:0.5;"/><text fill="#000000" font-family="sans-serif" font-size="11" lengthAdjust="spacing" textLength="18" x="157.5" y="488.1812">yes</text><text fill="#000000" font-family="sans-serif" font-size="11" lengthAdjust="spacing" textLength="208" x="48" y="469.8567">input = sel_developers or input = sel_group</text><polygon fill="#F1F1F1" points="153.5,555.9866,165.5,567.9866,153.5,579.9866,141.5,567.9866,153.5,555.9866" style="stroke:#181818;stroke-width:0.5;"/><polygon fill="#F1F1F1" points="141.5,50,165.5,50,177.5,62,165.5,74,141.5,74,129.5,62,141.5,50" style="stroke:#181818;stroke-width:0.5;"/><text fill="#000000" font-family="sans-serif" font-size="11" lengthAdjust="spacing" textLength="12" x="157.5" y="84.3179">do</text><text fill="#000000" font-family="sans-serif" font-size="11" lengthAdjust="spacing" textLength="23" x="142" y="65.9934">True</text><ellipse cx="153.5" cy="632.9866" rx="11" ry="11" style="stroke:#222222;stroke-width:1.0;fill:none;"/><ellipse cx="153.5" cy="632.9866" fill="#222222" rx="6" ry="6" style="stroke:#111111;stroke-width:1.0;"/><line style="stroke:#181818;stroke-width:1.0;" x1="153.5" x2="153.5" y1="139.6167" y2="159.6167"/><polygon fill="#181818" points="149.5,149.6167,153.5,159.6167,157.5,149.6167,153.5,153.6167" style="stroke:#181818;stroke-width:1.0;"/><line style="stroke:#181818;stroke-width:1.0;" x1="153.5" x2="153.5" y1="237.4155" y2="261.74"/><line style="stroke:#181818;stroke-width:1.0;" x1="153.5" x2="24" y1="261.74" y2="261.74"/><polygon fill="#181818" points="34,257.74,24,261.74,34,265.74,30,261.74" style="stroke:#181818;stroke-width:1.0;"/><line style="stroke:#181818;stroke-width:1.0;" x1="203" x2="215" y1="225.4155" y2="225.4155"/><polygon fill="#181818" points="211,248.74,215,258.74,219,248.74,215,252.74" style="stroke:#181818;stroke-width:1.0;"/><line style="stroke:#181818;stroke-width:1.0;" x1="215" x2="215" y1="225.4155" y2="287.74"/><line style="stroke:#181818;stroke-width:1.0;" x1="215" x2="153.5" y1="287.74" y2="287.74"/><line style="stroke:#181818;stroke-width:1.0;" x1="153.5" x2="153.5" y1="287.74" y2="307.74"/><polygon fill="#181818" points="149.5,297.74,153.5,307.74,157.5,297.74,153.5,301.74" style="stroke:#181818;stroke-width:1.0;"/><line style="stroke:#181818;stroke-width:1.0;" x1="153.5" x2="153.5" y1="193.4155" y2="213.4155"/><polygon fill="#181818" points="149.5,203.4155,153.5,213.4155,157.5,203.4155,153.5,207.4155" style="stroke:#181818;stroke-width:1.0;"/><line style="stroke:#181818;stroke-width:1.0;" x1="153.5" x2="153.5" y1="331.74" y2="356.0645"/><polygon fill="#181818" points="149.5,346.0645,153.5,356.0645,157.5,346.0645,153.5,350.0645" style="stroke:#181818;stroke-width:1.0;"/><line style="stroke:#181818;stroke-width:1.0;" x1="271" x2="283" y1="319.74" y2="319.74"/><polygon fill="#181818" points="279,362.9639,283,372.9639,287,362.9639,283,366.9639" style="stroke:#181818;stroke-width:1.0;"/><line style="stroke:#181818;stroke-width:1.0;" x1="283" x2="283" y1="319.74" y2="421.8633"/><line style="stroke:#181818;stroke-width:1.0;" x1="283" x2="165.5" y1="421.8633" y2="421.8633"/><polygon fill="#181818" points="175.5,417.8633,165.5,421.8633,175.5,425.8633,171.5,421.8633" style="stroke:#181818;stroke-width:1.0;"/><line style="stroke:#181818;stroke-width:1.0;" x1="153.5" x2="153.5" y1="389.8633" y2="409.8633"/><polygon fill="#181818" points="149.5,399.8633,153.5,409.8633,157.5,399.8633,153.5,403.8633" style="stroke:#181818;stroke-width:1.0;"/><line style="stroke:#181818;stroke-width:1.0;" x1="153.5" x2="153.5" y1="477.8633" y2="502.1877"/><polygon fill="#181818" points="149.5,492.1877,153.5,502.1877,157.5,492.1877,153.5,496.1877" style="stroke:#181818;stroke-width:1.0;"/><line style="stroke:#181818;stroke-width:1.0;" x1="271" x2="283" y1="465.8633" y2="465.8633"/><polygon fill="#181818" points="279,509.0872,283,519.0872,287,509.0872,283,513.0872" style="stroke:#181818;stroke-width:1.0;"/><line style="stroke:#181818;stroke-width:1.0;" x1="283" x2="283" y1="465.8633" y2="567.9866"/><line style="stroke:#181818;stroke-width:1.0;" x1="283" x2="165.5" y1="567.9866" y2="567.9866"/><polygon fill="#181818" points="175.5,563.9866,165.5,567.9866,175.5,571.9866,171.5,567.9866" style="stroke:#181818;stroke-width:1.0;"/><line style="stroke:#181818;stroke-width:1.0;" x1="153.5" x2="153.5" y1="535.9866" y2="555.9866"/><polygon fill="#181818" points="149.5,545.9866,153.5,555.9866,157.5,545.9866,153.5,549.9866" style="stroke:#181818;stroke-width:1.0;"/><line style="stroke:#181818;stroke-width:1.0;" x1="153.5" x2="153.5" y1="433.8633" y2="453.8633"/><polygon fill="#181818" points="149.5,443.8633,153.5,453.8633,157.5,443.8633,153.5,447.8633" style="stroke:#181818;stroke-width:1.0;"/><line style="stroke:#181818;stroke-width:1.0;" x1="153.5" x2="153.5" y1="74" y2="105.8179"/><polygon fill="#181818" points="149.5,95.8179,153.5,105.8179,157.5,95.8179,153.5,99.8179" style="stroke:#181818;stroke-width:1.0;"/><line style="stroke:#181818;stroke-width:1.0;" x1="153.5" x2="153.5" y1="579.9866" y2="589.9866"/><line style="stroke:#181818;stroke-width:1.0;" x1="153.5" x2="295" y1="589.9866" y2="589.9866"/><polygon fill="#181818" points="291,321.74,295,311.74,299,321.74,295,317.74" style="stroke:#181818;stroke-width:1.0;"/><line style="stroke:#181818;stroke-width:1.0;" x1="295" x2="295" y1="62" y2="589.9866"/><line style="stroke:#181818;stroke-width:1.0;" x1="295" x2="177.5" y1="62" y2="62"/><polygon fill="#181818" points="187.5,58,177.5,62,187.5,66,183.5,62" style="stroke:#181818;stroke-width:1.0;"/><line style="stroke:#181818;stroke-width:1.0;" x1="129.5" x2="24" y1="62" y2="62"/><polygon fill="#181818" points="20,307.74,24,317.74,28,307.74,24,311.74" style="stroke:#181818;stroke-width:1.0;"/><line style="stroke:#181818;stroke-width:1.0;" x1="24" x2="24" y1="62" y2="601.9866"/><line style="stroke:#181818;stroke-width:1.0;" x1="24" x2="153.5" y1="601.9866" y2="601.9866"/><line style="stroke:#181818;stroke-width:1.0;" x1="153.5" x2="153.5" y1="601.9866" y2="621.9866"/><polygon fill="#181818" points="149.5,611.9866,153.5,621.9866,157.5,611.9866,153.5,615.9866" style="stroke:#181818;stroke-width:1.0;"/><line style="stroke:#181818;stroke-width:1.0;" x1="153.5" x2="153.5" y1="30" y2="50"/><polygon fill="#181818" points="149.5,40,153.5,50,157.5,40,153.5,44" style="stroke:#181818;stroke-width:1.0;"/><!--MD5=[a167286c9cfa632df71eec6a0914dadd]
@startuml
start
while (True) is (do)
  :show main menu;
  :get input;
  if (input = sel_exit ) then (yes)
    break
  endif
  if (input = sel_group_logo or input = sel_group ) then (yes)
    <<procedure>> :print logo;
  endif
  if (input = sel_developers or input = sel_group ) then (yes)
    <<procedure>> :print developers;
  endif
endwhile
stop
@enduml

PlantUML version 1.2022.6(Tue Jun 21 19:34:49 CEST 2022)
(GPL source distribution)
Java Runtime: OpenJDK Runtime Environment
JVM: OpenJDK 64-Bit Server VM
Default Encoding: UTF-8
Language: de
Country: DE
--></g></svg>