<svg xmlns="http://www.w3.org/2000/svg" xmlns:xlink="http://www.w3.org/1999/xlink" contentStyleType="text/css" data-diagram-type="ACTIVITY" height="655px" preserveAspectRatio="none" style="width:234px;height:655px;background:#FFFFFF;" version="1.1" viewBox="0 0 234 655" width="234px" zoomAndPan="magnify"><defs/><g><ellipse cx="110.3745" cy="20" fill="#222222" rx="10" ry="10" style="stroke:#222222;stroke-width:1;"/><rect fill="#F1F1F1" height="33.9688" rx="12.5" ry="12.5" style="stroke:#181818;stroke-width:0.5;" width="122.9082" x="48.9204" y="105.7104"/><text fill="#000000" font-family="sans-serif" font-size="12" lengthAdjust="spacing" textLength="102.9082" x="58.9204" y="126.8491">show main menu</text><rect fill="#F1F1F1" height="33.9688" rx="12.5" ry="12.5" style="stroke:#181818;stroke-width:0.5;" width="74.3867" x="73.1812" y="159.6792"/><text fill="#000000" font-family="sans-serif" font-size="12" lengthAdjust="spacing" textLength="54.3867" x="83.1812" y="180.8179">get input</text><polygon fill="#F1F1F1" points="82.8745,213.6479,137.8745,213.6479,149.8745,225.6479,137.8745,237.6479,82.8745,237.6479,70.8745,225.6479,82.8745,213.6479" style="stroke:#181818;stroke-width:0.5;"/><text fill="#000000" font-family="sans-serif" font-size="11" lengthAdjust="spacing" textLength="19.0083" x="114.3745" y="247.8584">yes</text><text fill="#000000" font-family="sans-serif" font-size="11" lengthAdjust="spacing" textLength="51.5034" x="82.8745" y="229.4561">input = 4</text><rect fill="#F1F1F1" height="33.9688" style="stroke:#181818;stroke-width:0.5;" width="77.6445" x="71.5522" y="356.4526"/><line style="stroke:#181818;stroke-width:0.5;" x1="76.5522" x2="76.5522" y1="356.4526" y2="390.4214"/><line style="stroke:#181818;stroke-width:0.5;" x1="144.1968" x2="144.1968" y1="356.4526" y2="390.4214"/><text fill="#000000" font-family="sans-serif" font-size="12" lengthAdjust="spacing" textLength="57.6445" x="81.5522" y="377.5913">print logo</text><polygon fill="#F1F1F1" points="48,308.0503,172.749,308.0503,184.749,320.0503,172.749,332.0503,48,332.0503,36,320.0503,48,308.0503" style="stroke:#181818;stroke-width:0.5;"/><text fill="#000000" font-family="sans-serif" font-size="11" lengthAdjust="spacing" textLength="19.0083" x="114.3745" y="342.2607">yes</text><text fill="#000000" font-family="sans-serif" font-size="11" lengthAdjust="spacing" textLength="121.2524" x="48" y="323.8584">input = 2 or input = 3</text><polygon fill="#F1F1F1" points="110.3745,410.4214,122.3745,422.4214,110.3745,434.4214,98.3745,422.4214,110.3745,410.4214" style="stroke:#181818;stroke-width:0.5;"/><rect fill="#F1F1F1" height="33.9688" style="stroke:#181818;stroke-width:0.5;" width="118.3555" x="51.1968" y="502.8237"/><line style="stroke:#181818;stroke-width:0.5;" x1="56.1968" x2="56.1968" y1="502.8237" y2="536.7925"/><line style="stroke:#181818;stroke-width:0.5;" x1="164.5522" x2="164.5522" y1="502.8237" y2="536.7925"/><text fill="#000000" font-family="sans-serif" font-size="12" lengthAdjust="spacing" textLength="98.3555" x="61.1968" y="523.9624">print developers</text><polygon fill="#F1F1F1" points="48,454.4214,172.749,454.4214,184.749,466.4214,172.749,478.4214,48,478.4214,36,466.4214,48,454.4214" style="stroke:#181818;stroke-width:0.5;"/><text fill="#000000" font-family="sans-serif" font-size="11" lengthAdjust="spacing" textLength="19.0083" x="114.3745" y="488.6318">yes</text><text fill="#000000" font-family="sans-serif" font-size="11" lengthAdjust="spacing" textLength="121.2524" x="48" y="470.2295">input = 1 or input = 3</text><polygon fill="#F1F1F1" points="110.3745,556.7925,122.3745,568.7925,110.3745,580.7925,98.3745,568.7925,110.3745,556.7925" style="stroke:#181818;stroke-width:0.5;"/><polygon fill="#F1F1F1" points="97.884,50,122.865,50,134.865,62,122.865,74,97.884,74,85.884,62,97.884,50" style="stroke:#181818;stroke-width:0.5;"/><text fill="#000000" font-family="sans-serif" font-size="11" lengthAdjust="spacing" textLength="13.7124" x="114.3745" y="84.2104">do</text><text fill="#000000" font-family="sans-serif" font-size="11" lengthAdjust="spacing" textLength="24.981" x="97.884" y="65.8081">True</text><ellipse cx="110.3745" cy="633.7925" fill="none" rx="11" ry="11" style="stroke:#222222;stroke-width:1;"/><ellipse cx="110.3745" cy="633.7925" fill="#222222" rx="6" ry="6" style="stroke:#222222;stroke-width:1;"/><line style="stroke:#181818;stroke-width:1;" x1="110.3745" x2="110.3745" y1="139.6792" y2="159.6792"/><polygon fill="#181818" points="106.3745,149.6792,110.3745,159.6792,114.3745,149.6792,110.3745,153.6792" style="stroke:#181818;stroke-width:1;"/><line style="stroke:#181818;stroke-width:1;" x1="110.3745" x2="110.3745" y1="237.6479" y2="262.0503"/><line style="stroke:#181818;stroke-width:1;" x1="110.3745" x2="24" y1="262.0503" y2="262.0503"/><polygon fill="#181818" points="34,258.0503,24,262.0503,34,266.0503,30,262.0503" style="stroke:#181818;stroke-width:1;"/><line style="stroke:#181818;stroke-width:1;" x1="149.8745" x2="161.8745" y1="225.6479" y2="225.6479"/><polygon fill="#181818" points="157.8745,249.0503,161.8745,259.0503,165.8745,249.0503,161.8745,253.0503" style="stroke:#181818;stroke-width:1;"/><line style="stroke:#181818;stroke-width:1;" x1="161.8745" x2="161.8745" y1="225.6479" y2="288.0503"/><line style="stroke:#181818;stroke-width:1;" x1="161.8745" x2="110.3745" y1="288.0503" y2="288.0503"/><line style="stroke:#181818;stroke-width:1;" x1="110.3745" x2="110.3745" y1="288.0503" y2="308.0503"/><polygon fill="#181818" points="106.3745,298.0503,110.3745,308.0503,114.3745,298.0503,110.3745,302.0503" style="stroke:#181818;stroke-width:1;"/><line style="stroke:#181818;stroke-width:1;" x1="110.3745" x2="110.3745" y1="193.6479" y2="213.6479"/><polygon fill="#181818" points="106.3745,203.6479,110.3745,213.6479,114.3745,203.6479,110.3745,207.6479" style="stroke:#181818;stroke-width:1;"/><line style="stroke:#181818;stroke-width:1;" x1="110.3745" x2="110.3745" y1="332.0503" y2="356.4526"/><polygon fill="#181818" points="106.3745,346.4526,110.3745,356.4526,114.3745,346.4526,110.3745,350.4526" style="stroke:#181818;stroke-width:1;"/><line style="stroke:#181818;stroke-width:1;" x1="184.749" x2="196.749" y1="320.0503" y2="320.0503"/><polygon fill="#181818" points="192.749,363.437,196.749,373.437,200.749,363.437,196.749,367.437" style="stroke:#181818;stroke-width:1;"/><line style="stroke:#181818;stroke-width:1;" x1="196.749" x2="196.749" y1="320.0503" y2="422.4214"/><line style="stroke:#181818;stroke-width:1;" x1="196.749" x2="122.3745" y1="422.4214" y2="422.4214"/><polygon fill="#181818" points="132.3745,418.4214,122.3745,422.4214,132.3745,426.4214,128.3745,422.4214" style="stroke:#181818;stroke-width:1;"/><line style="stroke:#181818;stroke-width:1;" x1="110.3745" x2="110.3745" y1="390.4214" y2="410.4214"/><polygon fill="#181818" points="106.3745,400.4214,110.3745,410.4214,114.3745,400.4214,110.3745,404.4214" style="stroke:#181818;stroke-width:1;"/><line style="stroke:#181818;stroke-width:1;" x1="110.3745" x2="110.3745" y1="478.4214" y2="502.8237"/><polygon fill="#181818" points="106.3745,492.8237,110.3745,502.8237,114.3745,492.8237,110.3745,496.8237" style="stroke:#181818;stroke-width:1;"/><line style="stroke:#181818;stroke-width:1;" x1="184.749" x2="196.749" y1="466.4214" y2="466.4214"/><polygon fill="#181818" points="192.749,509.8081,196.749,519.8081,200.749,509.8081,196.749,513.8081" style="stroke:#181818;stroke-width:1;"/><line style="stroke:#181818;stroke-width:1;" x1="196.749" x2="196.749" y1="466.4214" y2="568.7925"/><line style="stroke:#181818;stroke-width:1;" x1="196.749" x2="122.3745" y1="568.7925" y2="568.7925"/><polygon fill="#181818" points="132.3745,564.7925,122.3745,568.7925,132.3745,572.7925,128.3745,568.7925" style="stroke:#181818;stroke-width:1;"/><line style="stroke:#181818;stroke-width:1;" x1="110.3745" x2="110.3745" y1="536.7925" y2="556.7925"/><polygon fill="#181818" points="106.3745,546.7925,110.3745,556.7925,114.3745,546.7925,110.3745,550.7925" style="stroke:#181818;stroke-width:1;"/><line style="stroke:#181818;stroke-width:1;" x1="110.3745" x2="110.3745" y1="434.4214" y2="454.4214"/><polygon fill="#181818" points="106.3745,444.4214,110.3745,454.4214,114.3745,444.4214,110.3745,448.4214" style="stroke:#181818;stroke-width:1;"/><line style="stroke:#181818;stroke-width:1;" x1="110.3745" x2="110.3745" y1="74" y2="105.7104"/><polygon fill="#181818" points="106.3745,95.7104,110.3745,105.7104,114.3745,95.7104,110.3745,99.7104" style="stroke:#181818;stroke-width:1;"/><line style="stroke:#181818;stroke-width:1;" x1="110.3745" x2="110.3745" y1="580.7925" y2="590.7925"/><line style="stroke:#181818;stroke-width:1;" x1="110.3745" x2="208.749" y1="590.7925" y2="590.7925"/><polygon fill="#181818" points="204.749,322.0503,208.749,312.0503,212.749,322.0503,208.749,318.0503" style="stroke:#181818;stroke-width:1;"/><line style="stroke:#181818;stroke-width:1;" x1="208.749" x2="208.749" y1="62" y2="590.7925"/><line style="stroke:#181818;stroke-width:1;" x1="208.749" x2="134.865" y1="62" y2="62"/><polygon fill="#181818" points="144.865,58,134.865,62,144.865,66,140.865,62" style="stroke:#181818;stroke-width:1;"/><line style="stroke:#181818;stroke-width:1;" x1="85.884" x2="24" y1="62" y2="62"/><polygon fill="#181818" points="20,308.0503,24,318.0503,28,308.0503,24,312.0503" style="stroke:#181818;stroke-width:1;"/><line style="stroke:#181818;stroke-width:1;" x1="24" x2="24" y1="62" y2="602.7925"/><line style="stroke:#181818;stroke-width:1;" x1="24" x2="110.3745" y1="602.7925" y2="602.7925"/><line style="stroke:#181818;stroke-width:1;" x1="110.3745" x2="110.3745" y1="602.7925" y2="622.7925"/><polygon fill="#181818" points="106.3745,612.7925,110.3745,622.7925,114.3745,612.7925,110.3745,616.7925" style="stroke:#181818;stroke-width:1;"/><line style="stroke:#181818;stroke-width:1;" x1="110.3745" x2="110.3745" y1="30" y2="50"/><polygon fill="#181818" points="106.3745,40,110.3745,50,114.3745,40,110.3745,44" style="stroke:#181818;stroke-width:1;"/><!--SRC=[bO-z3eCm48FtUmgFoTYV2IXFqHU0ve2ea8ikIL7VlXKI0rANBfOjsP_ab3lDj4v-PfYx5hRm2SQ9fIfDicBfVC32eTHKZPpXGoov9Z_0R1OtN66H9mumRqwMUkNkIHoS7mwrCqInXyjnqpHHvS6kABSjggW-PCmoIlq3TFeNvFZ5iqJMjEE-kdscb2L-0000]--></g></svg>