<svg xmlns="http://www.w3.org/2000/svg" xmlns:xlink="http://www.w3.org/1999/xlink" contentStyleType="text/css" data-diagram-type="ACTIVITY" height="727px" preserveAspectRatio="none" style="width:234px;height:727px;background:#FFFFFF;" version="1.1" viewBox="0 0 234 727" width="234px" zoomAndPan="magnify"><defs/><g><ellipse cx="110.2268" cy="20" fill="#222222" rx="10" ry="10" style="stroke:#222222;stroke-width:1;"/><rect fill="#F1F1F1" height="88.9941" style="stroke:#181818;stroke-width:0.5;" width="124.7305" x="47.8616" y="105.8179"/><line style="stroke:#181818;stroke-width:0.5;" x1="52.8616" x2="52.8616" y1="105.8179" y2="194.812"/><line style="stroke:#181818;stroke-width:0.5;" x1="167.592" x2="167.592" y1="105.8179" y2="194.812"/><text fill="#000000" font-family="sans-serif" font-size="12" font-weight="bold" lengthAdjust="spacing" textLength="97.3477" x="57.8616" y="127.0737">show main menu</text><text fill="#000000" font-family="sans-serif" font-size="12" lengthAdjust="spacing" textLength="96.0469" x="57.8616" y="140.8726">1. List Developers</text><text fill="#000000" font-family="sans-serif" font-size="12" lengthAdjust="spacing" textLength="104.7305" x="57.8616" y="154.6714">2. Print Group Logo</text><text fill="#000000" font-family="sans-serif" font-size="12" lengthAdjust="spacing" textLength="74.7012" x="57.8616" y="168.4702">3. Print Group</text><text fill="#000000" font-family="sans-serif" font-size="12" lengthAdjust="spacing" textLength="33.3457" x="57.8616" y="182.269">4. Exit</text><rect fill="#F1F1F1" height="33.7988" rx="12.5" ry="12.5" style="stroke:#181818;stroke-width:0.5;" width="66.0371" x="77.2083" y="214.812"/><text fill="#000000" font-family="sans-serif" font-size="12" lengthAdjust="spacing" textLength="46.0371" x="87.2083" y="236.0679">get input</text><polygon fill="#F1F1F1" points="70.325,268.6108,150.1287,268.6108,162.1287,280.6108,150.1287,292.6108,70.325,292.6108,58.325,280.6108,70.325,268.6108" style="stroke:#181818;stroke-width:0.5;"/><text fill="#000000" font-family="sans-serif" font-size="11" lengthAdjust="spacing" textLength="17.1177" x="114.2268" y="302.9287">yes</text><text fill="#000000" font-family="sans-serif" font-size="11" lengthAdjust="spacing" textLength="79.8037" x="70.325" y="284.6042">input = sel_exit?</text><rect fill="#F1F1F1" height="33.7988" style="stroke:#181818;stroke-width:0.5;" width="69.3652" x="75.5442" y="427.5576"/><line style="stroke:#181818;stroke-width:0.5;" x1="80.5442" x2="80.5442" y1="427.5576" y2="461.3564"/><line style="stroke:#181818;stroke-width:0.5;" x1="139.9094" x2="139.9094" y1="427.5576" y2="461.3564"/><text fill="#000000" font-family="sans-serif" font-size="12" lengthAdjust="spacing" textLength="49.3652" x="85.5442" y="448.8135">print logo</text><polygon fill="#F1F1F1" points="48,377.9353,172.4536,377.9353,184.4536,390.5842,172.4536,403.2332,48,403.2332,36,390.5842,48,377.9353" style="stroke:#181818;stroke-width:0.5;"/><text fill="#000000" font-family="sans-serif" font-size="11" lengthAdjust="spacing" textLength="17.1177" x="114.2268" y="413.551">yes</text><text fill="#000000" font-family="sans-serif" font-size="11" lengthAdjust="spacing" textLength="124.4536" x="48" y="388.2532">input = sel_group_logo or</text><text fill="#000000" font-family="sans-serif" font-size="11" lengthAdjust="spacing" textLength="90.8198" x="48" y="400.9021">input = sel_group?</text><polygon fill="#F1F1F1" points="110.2268,481.3564,122.2268,493.3564,110.2268,505.3564,98.2268,493.3564,110.2268,481.3564" style="stroke:#181818;stroke-width:0.5;"/><rect fill="#F1F1F1" height="33.7988" style="stroke:#181818;stroke-width:0.5;" width="105.3828" x="57.5354" y="574.9788"/><line style="stroke:#181818;stroke-width:0.5;" x1="62.5354" x2="62.5354" y1="574.9788" y2="608.7776"/><line style="stroke:#181818;stroke-width:0.5;" x1="157.9182" x2="157.9182" y1="574.9788" y2="608.7776"/><text fill="#000000" font-family="sans-serif" font-size="12" lengthAdjust="spacing" textLength="85.3828" x="67.5354" y="596.2346">print developers</text><polygon fill="#F1F1F1" points="48.6177,525.3564,171.8359,525.3564,183.8359,538.0054,171.8359,550.6543,48.6177,550.6543,36.6177,538.0054,48.6177,525.3564" style="stroke:#181818;stroke-width:0.5;"/><text fill="#000000" font-family="sans-serif" font-size="11" lengthAdjust="spacing" textLength="17.1177" x="114.2268" y="560.9722">yes</text><text fill="#000000" font-family="sans-serif" font-size="11" lengthAdjust="spacing" textLength="123.2183" x="48.6177" y="535.6743">input = sel_developers or</text><text fill="#000000" font-family="sans-serif" font-size="11" lengthAdjust="spacing" textLength="90.8198" x="48.6177" y="548.3232">input = sel_group?</text><polygon fill="#F1F1F1" points="110.2268,628.7776,122.2268,640.7776,110.2268,652.7776,98.2268,640.7776,110.2268,628.7776" style="stroke:#181818;stroke-width:0.5;"/><polygon fill="#F1F1F1" points="58.8577,50,161.5959,50,173.5959,62,161.5959,74,58.8577,74,46.8577,62,58.8577,50" style="stroke:#181818;stroke-width:0.5;"/><text fill="#000000" font-family="sans-serif" font-size="11" lengthAdjust="spacing" textLength="12.2354" x="114.2268" y="84.3179">do</text><text fill="#000000" font-family="sans-serif" font-size="11" lengthAdjust="spacing" textLength="102.7383" x="58.8577" y="65.9934">until death do us part</text><ellipse cx="110.2268" cy="705.7776" fill="none" rx="11" ry="11" style="stroke:#222222;stroke-width:1;"/><ellipse cx="110.2268" cy="705.7776" fill="#222222" rx="6" ry="6" style="stroke:#222222;stroke-width:1;"/><line style="stroke:#181818;stroke-width:1;" x1="110.2268" x2="110.2268" y1="194.812" y2="214.812"/><polygon fill="#181818" points="106.2268,204.812,110.2268,214.812,114.2268,204.812,110.2268,208.812" style="stroke:#181818;stroke-width:1;"/><line style="stroke:#181818;stroke-width:1;" x1="110.2268" x2="110.2268" y1="292.6108" y2="316.9353"/><line style="stroke:#181818;stroke-width:1;" x1="110.2268" x2="24" y1="316.9353" y2="316.9353"/><polygon fill="#181818" points="34,312.9353,24,316.9353,34,320.9353,30,316.9353" style="stroke:#181818;stroke-width:1;"/><line style="stroke:#181818;stroke-width:1;" x1="162.1287" x2="174.1287" y1="280.6108" y2="280.6108"/><polygon fill="#181818" points="170.1287,303.9353,174.1287,313.9353,178.1287,303.9353,174.1287,307.9353" style="stroke:#181818;stroke-width:1;"/><line style="stroke:#181818;stroke-width:1;" x1="174.1287" x2="174.1287" y1="280.6108" y2="342.9353"/><line style="stroke:#181818;stroke-width:1;" x1="174.1287" x2="110.2268" y1="342.9353" y2="342.9353"/><line style="stroke:#181818;stroke-width:1;" x1="110.2268" x2="110.2268" y1="342.9353" y2="377.9353"/><polygon fill="#181818" points="106.2268,367.9353,110.2268,377.9353,114.2268,367.9353,110.2268,371.9353" style="stroke:#181818;stroke-width:1;"/><line style="stroke:#181818;stroke-width:1;" x1="110.2268" x2="110.2268" y1="248.6108" y2="268.6108"/><polygon fill="#181818" points="106.2268,258.6108,110.2268,268.6108,114.2268,258.6108,110.2268,262.6108" style="stroke:#181818;stroke-width:1;"/><line style="stroke:#181818;stroke-width:1;" x1="110.2268" x2="110.2268" y1="403.2332" y2="427.5576"/><polygon fill="#181818" points="106.2268,417.5576,110.2268,427.5576,114.2268,417.5576,110.2268,421.5576" style="stroke:#181818;stroke-width:1;"/><line style="stroke:#181818;stroke-width:1;" x1="184.4536" x2="196.4536" y1="390.5842" y2="390.5842"/><polygon fill="#181818" points="192.4536,434.1326,196.4536,444.1326,200.4536,434.1326,196.4536,438.1326" style="stroke:#181818;stroke-width:1;"/><line style="stroke:#181818;stroke-width:1;" x1="196.4536" x2="196.4536" y1="390.5842" y2="493.3564"/><line style="stroke:#181818;stroke-width:1;" x1="196.4536" x2="122.2268" y1="493.3564" y2="493.3564"/><polygon fill="#181818" points="132.2268,489.3564,122.2268,493.3564,132.2268,497.3564,128.2268,493.3564" style="stroke:#181818;stroke-width:1;"/><line style="stroke:#181818;stroke-width:1;" x1="110.2268" x2="110.2268" y1="461.3564" y2="481.3564"/><polygon fill="#181818" points="106.2268,471.3564,110.2268,481.3564,114.2268,471.3564,110.2268,475.3564" style="stroke:#181818;stroke-width:1;"/><line style="stroke:#181818;stroke-width:1;" x1="110.2268" x2="110.2268" y1="550.6543" y2="574.9788"/><polygon fill="#181818" points="106.2268,564.9788,110.2268,574.9788,114.2268,564.9788,110.2268,568.9788" style="stroke:#181818;stroke-width:1;"/><line style="stroke:#181818;stroke-width:1;" x1="183.8359" x2="195.8359" y1="538.0054" y2="538.0054"/><polygon fill="#181818" points="191.8359,581.5537,195.8359,591.5537,199.8359,581.5537,195.8359,585.5537" style="stroke:#181818;stroke-width:1;"/><line style="stroke:#181818;stroke-width:1;" x1="195.8359" x2="195.8359" y1="538.0054" y2="640.7776"/><line style="stroke:#181818;stroke-width:1;" x1="195.8359" x2="122.2268" y1="640.7776" y2="640.7776"/><polygon fill="#181818" points="132.2268,636.7776,122.2268,640.7776,132.2268,644.7776,128.2268,640.7776" style="stroke:#181818;stroke-width:1;"/><line style="stroke:#181818;stroke-width:1;" x1="110.2268" x2="110.2268" y1="608.7776" y2="628.7776"/><polygon fill="#181818" points="106.2268,618.7776,110.2268,628.7776,114.2268,618.7776,110.2268,622.7776" style="stroke:#181818;stroke-width:1;"/><line style="stroke:#181818;stroke-width:1;" x1="110.2268" x2="110.2268" y1="505.3564" y2="525.3564"/><polygon fill="#181818" points="106.2268,515.3564,110.2268,525.3564,114.2268,515.3564,110.2268,519.3564" style="stroke:#181818;stroke-width:1;"/><line style="stroke:#181818;stroke-width:1;" x1="110.2268" x2="110.2268" y1="74" y2="105.8179"/><polygon fill="#181818" points="106.2268,95.8179,110.2268,105.8179,114.2268,95.8179,110.2268,99.8179" style="stroke:#181818;stroke-width:1;"/><line style="stroke:#181818;stroke-width:1;" x1="110.2268" x2="110.2268" y1="652.7776" y2="662.7776"/><line style="stroke:#181818;stroke-width:1;" x1="110.2268" x2="208.4536" y1="662.7776" y2="662.7776"/><polygon fill="#181818" points="204.4536,365.6355,208.4536,355.6355,212.4536,365.6355,208.4536,361.6355" style="stroke:#181818;stroke-width:1;"/><line style="stroke:#181818;stroke-width:1;" x1="208.4536" x2="208.4536" y1="62" y2="662.7776"/><line style="stroke:#181818;stroke-width:1;" x1="208.4536" x2="173.5959" y1="62" y2="62"/><polygon fill="#181818" points="183.5959,58,173.5959,62,183.5959,66,179.5959,62" style="stroke:#181818;stroke-width:1;"/><line style="stroke:#181818;stroke-width:1;" x1="46.8577" x2="24" y1="62" y2="62"/><polygon fill="#181818" points="20,351.6355,24,361.6355,28,351.6355,24,355.6355" style="stroke:#181818;stroke-width:1;"/><line style="stroke:#181818;stroke-width:1;" x1="24" x2="24" y1="62" y2="674.7776"/><line style="stroke:#181818;stroke-width:1;" x1="24" x2="110.2268" y1="674.7776" y2="674.7776"/><line style="stroke:#181818;stroke-width:1;" x1="110.2268" x2="110.2268" y1="674.7776" y2="694.7776"/><polygon fill="#181818" points="106.2268,684.7776,110.2268,694.7776,114.2268,684.7776,110.2268,688.7776" style="stroke:#181818;stroke-width:1;"/><line style="stroke:#181818;stroke-width:1;" x1="110.2268" x2="110.2268" y1="30" y2="50"/><polygon fill="#181818" points="106.2268,40,110.2268,50,114.2268,40,110.2268,44" style="stroke:#181818;stroke-width:1;"/><!--SRC=[ZP7DJiD038JlUOev9Zb4ukVKbd81SUc11q2g0kic5jlrQjTBuUrn8WH2eH8NQptM-1jvi_P9gzF8db2NeEpXgDSHJb0oeaqRS4RjfAc0LTlcKKuuzXnmf53QrjIB3ZlEYZjw8o-HKZRniiDZug1uI58YTZA8gLU_L1EkEzo_iwwnsSGaB-HAekrsGWsau12BhgtZ0-gvmGqo-JsPvxQ1ZXHGVr2UmW7FYVfNUr5mVFZ3DKpGlRSeaFGK5gFbHgpY77VoB3EUuxZlG_oNyuNvCPw3MPr_gyegyHC0]--></g></svg>